<svg width="101" height="45" viewBox="0 0 101 45" fill="none" xmlns="http://www.w3.org/2000/svg">
<path d="M9.64771 12.1621C9.64771 10.147 11.2675 8.51349 13.2656 8.51349H86.8298C88.8279 8.51349 90.4477 10.147 90.4477 12.1621V33.1419C90.4477 35.157 88.8279 36.7905 86.8298 36.7905H13.2656C11.2675 36.7905 9.64771 35.157 9.64771 33.1419V12.1621Z" fill="#CC0000" fill-opacity="0.8"/>
<path fill-rule="evenodd" clip-rule="evenodd" d="M97.3821 1.21622H3.61791C2.28583 1.21622 1.20597 2.30525 1.20597 3.64865V41.3514C1.20597 42.6947 2.28583 43.7838 3.61791 43.7838H97.3821C98.7142 43.7838 99.794 42.6947 99.794 41.3514V3.64865C99.794 2.30525 98.7142 1.21622 97.3821 1.21622ZM3.61791 0C1.61979 0 0 1.63356 0 3.64865V41.3514C0 43.3664 1.61979 45 3.61791 45H97.3821C99.3802 45 101 43.3664 101 41.3514V3.64865C101 1.63356 99.3802 0 97.3821 0H3.61791Z" fill="#FAFAFA"/>
<path d="M49.9014 21.5474L40.722 27.6665L40.9955 15.0302L49.9014 21.5474Z" fill="#FAFAFA"/>
<path d="M20.0774 28.8851V27.6879L21.6131 27.4219V16.5234L20.0774 16.2574V15.0507H23.488L30.2151 25.8351L30.2716 25.8161V16.5234L28.5851 16.2574V15.0507H33.5127V16.2574L31.9769 16.5234V28.8851H30.281L23.375 18.0437L23.3184 18.0627V27.4219L25.0049 27.6879V28.8851H20.0774Z" fill="#202020"/>
<path fill-rule="evenodd" clip-rule="evenodd" d="M19.7761 29.1892V27.4317L21.3119 27.1656V16.7797L19.7761 16.5137V14.7466H23.6548L29.9703 24.8714V16.7836L28.2839 16.5176V14.7466H33.8144V16.5137L32.2786 16.7797V29.1892H30.1166L23.6202 18.9908V27.1617L25.3066 27.4278V29.1892H19.7761ZM23.3187 27.4219V18.0627L23.3752 18.0437L30.2813 28.8852H31.9771V16.5235L33.5129 16.2574V15.0507H28.5854V16.2574L30.2718 16.5235V25.8161L30.2153 25.8351L23.4883 15.0507H20.0776V16.2574L21.6133 16.5235V27.4219L20.0776 27.6879V28.8852H25.0051V27.6879L23.3187 27.4219Z" fill="#202020"/>
<path d="M56.1138 15.6405H53.6355V14.1081H60.5638V15.6405H58.1579V28.8851H56.1138V15.6405Z" fill="#202020"/>
<path d="M63.315 29.0311C62.7482 29.0311 62.3442 28.8243 62.103 28.4108C61.8618 27.9973 61.7412 27.4865 61.7412 26.8784V18.3405H63.6768V26.2946C63.6768 26.6959 63.7371 27 63.8576 27.2067C63.9782 27.4013 64.1953 27.4986 64.5089 27.4986C64.8948 27.4986 65.347 27.2797 65.8656 26.8419V18.3405H67.8012V28.8851H65.8656V27.8453C65.0335 28.6358 64.1833 29.0311 63.315 29.0311Z" fill="#202020"/>
<path d="M73.5252 29.0311C72.8981 29.0311 72.3072 28.727 71.7525 28.1189V28.8851H69.8169V14.1081H71.7525V19.1797C72.3193 18.523 72.9765 18.1946 73.7242 18.1946C74.6769 18.1946 75.3101 18.6081 75.6236 19.4351C75.9492 20.25 76.112 21.1561 76.112 22.1534V24.7074C76.112 27.5899 75.2498 29.0311 73.5252 29.0311ZM73.1273 27.4986C73.5735 27.4986 73.8569 27.2736 73.9775 26.8236C74.1101 26.3615 74.1765 25.6561 74.1765 24.7074V22.1534C74.1765 21.375 74.1041 20.779 73.9594 20.3655C73.8147 19.9399 73.5132 19.727 73.0549 19.727C72.6328 19.727 72.1987 19.9034 71.7525 20.2561V27.0243C72.1504 27.3405 72.6087 27.4986 73.1273 27.4986Z" fill="#202020"/>
<path d="M80.7659 29.0311C79.9579 29.0311 79.3308 28.879 78.8846 28.575C78.4383 28.2588 78.1248 27.7966 77.9439 27.1885C77.763 26.5804 77.6726 25.7899 77.6726 24.8169V22.4088C77.6726 20.9493 77.8957 19.8851 78.3419 19.2162C78.8001 18.5351 79.6081 18.1946 80.7659 18.1946C81.6101 18.1946 82.2432 18.3709 82.6653 18.7236C83.0994 19.0763 83.3828 19.575 83.5155 20.2196C83.6602 20.852 83.7326 21.7094 83.7326 22.7919V23.6493H79.6081V25.7655C79.6081 26.4101 79.6986 26.8784 79.8795 27.1703C80.0724 27.45 80.3739 27.5899 80.784 27.5899C81.194 27.5899 81.4714 27.45 81.6161 27.1703C81.7608 26.8784 81.8332 26.4405 81.8332 25.8567V25.2182H83.7145V25.6196C83.7145 26.7263 83.4793 27.5716 83.009 28.1554C82.5386 28.7392 81.7909 29.0311 80.7659 29.0311ZM81.8332 22.5912V21.6426C81.8332 20.925 81.7608 20.4142 81.6161 20.1101C81.4834 19.7939 81.194 19.6358 80.7478 19.6358C80.4342 19.6358 80.193 19.7088 80.0242 19.8547C79.8674 20.0007 79.7589 20.2439 79.6986 20.5844C79.6383 20.9128 79.6081 21.3932 79.6081 22.0257V22.5912H81.8332Z" fill="#202020"/>
</svg>
