<svg width="30" height="24" viewBox="0 0 30 24" fill="none" xmlns="http://www.w3.org/2000/svg">
<path d="M20.3125 10.6875L11 16V5.3125L20.3125 10.6875ZM27 18.6875V2.6875H3V18.6875H27ZM27 0C27.75 0 28.375 0.270833 28.875 0.8125C29.4167 1.3125 29.6875 1.9375 29.6875 2.6875L29.625 18.6875C29.625 19.3958 29.3542 20.0208 28.8125 20.5625C28.3125 21.0625 27.7083 21.3125 27 21.3125H20.3125V24H9.6875V21.3125H3C2.25 21.3125 1.60417 21.0625 1.0625 20.5625C0.5625 20.0625 0.3125 19.4375 0.3125 18.6875V2.6875C0.3125 1.9375 0.5625 1.3125 1.0625 0.8125C1.60417 0.270833 2.25 0 3 0H27Z" fill="#195E8A"/>
</svg>
