<svg width="23" height="23" viewBox="0 0 23 23" fill="none" xmlns="http://www.w3.org/2000/svg">
<g opacity="0.3">
<path d="M4.91016 12.8789C6.00391 13.9727 7.33203 14.5195 8.89453 14.5195C10.457 14.5195 11.7852 13.9727 12.8789 12.8789C13.9727 11.7852 14.5195 10.457 14.5195 8.89453C14.5195 7.33203 13.9727 6.00391 12.8789 4.91016C11.7852 3.81641 10.457 3.26953 8.89453 3.26953C7.33203 3.26953 6.00391 3.81641 4.91016 4.91016C3.81641 6.00391 3.26953 7.33203 3.26953 8.89453C3.26953 10.457 3.81641 11.7852 4.91016 12.8789ZM16.3945 14.5195L22.6055 20.7305L20.7305 22.6055L14.5195 16.3945V15.3984L14.168 15.0469C12.6836 16.3359 10.9258 16.9805 8.89453 16.9805C6.62891 16.9805 4.69531 16.1992 3.09375 14.6367C1.53125 13.0742 0.75 11.1602 0.75 8.89453C0.75 6.62891 1.53125 4.71484 3.09375 3.15234C4.69531 1.55078 6.62891 0.75 8.89453 0.75C11.1602 0.75 13.0742 1.55078 14.6367 3.15234C16.1992 4.71484 16.9805 6.62891 16.9805 8.89453C16.9805 9.71484 16.7852 10.6523 16.3945 11.707C16.0039 12.7227 15.5547 13.543 15.0469 14.168L15.3984 14.5195H16.3945Z" fill="#202020"/>
<path d="M4.91016 12.8789L4.5566 13.2325L4.91016 12.8789ZM12.8789 12.8789L13.2325 13.2325L12.8789 12.8789ZM16.3945 14.5195L16.7481 14.166L16.6016 14.0195H16.3945V14.5195ZM22.6055 20.7305L22.959 21.084L23.3126 20.7305L22.959 20.3769L22.6055 20.7305ZM20.7305 22.6055L20.3769 22.959L20.7305 23.3126L21.084 22.959L20.7305 22.6055ZM14.5195 16.3945H14.0195V16.6016L14.166 16.7481L14.5195 16.3945ZM14.5195 15.3984H15.0195V15.1913L14.8731 15.0449L14.5195 15.3984ZM14.168 15.0469L14.5215 14.6933L14.192 14.3638L13.8401 14.6694L14.168 15.0469ZM3.09375 14.6367L2.74017 14.9903L2.74459 14.9946L3.09375 14.6367ZM14.6367 3.15234L14.2788 3.50153L14.2832 3.5059L14.6367 3.15234ZM16.3945 11.707L16.8612 11.8865L16.8634 11.8807L16.3945 11.707ZM15.0469 14.168L14.6588 13.8527L14.3745 14.2027L14.6933 14.5215L15.0469 14.168ZM15.3984 14.5195L15.0449 14.8731L15.1913 15.0195H15.3984V14.5195ZM4.5566 13.2325C5.74519 14.421 7.20094 15.0195 8.89453 15.0195V14.0195C7.46313 14.0195 6.26263 13.5243 5.26371 12.5254L4.5566 13.2325ZM8.89453 15.0195C10.5881 15.0195 12.0439 14.421 13.2325 13.2325L12.5254 12.5254C11.5264 13.5243 10.3259 14.0195 8.89453 14.0195V15.0195ZM13.2325 13.2325C14.421 12.0439 15.0195 10.5881 15.0195 8.89453H14.0195C14.0195 10.3259 13.5243 11.5264 12.5254 12.5254L13.2325 13.2325ZM15.0195 8.89453C15.0195 7.20094 14.421 5.74519 13.2325 4.5566L12.5254 5.26371C13.5243 6.26263 14.0195 7.46313 14.0195 8.89453H15.0195ZM13.2325 4.5566C12.0439 3.36802 10.5881 2.76953 8.89453 2.76953V3.76953C10.3259 3.76953 11.5264 4.26479 12.5254 5.26371L13.2325 4.5566ZM8.89453 2.76953C7.20094 2.76953 5.74519 3.36802 4.5566 4.5566L5.26371 5.26371C6.26263 4.26479 7.46313 3.76953 8.89453 3.76953V2.76953ZM4.5566 4.5566C3.36802 5.74519 2.76953 7.20094 2.76953 8.89453H3.76953C3.76953 7.46313 4.26479 6.26263 5.26371 5.26371L4.5566 4.5566ZM2.76953 8.89453C2.76953 10.5881 3.36802 12.0439 4.5566 13.2325L5.26371 12.5254C4.26479 11.5264 3.76953 10.3259 3.76953 8.89453H2.76953ZM16.041 14.8731L22.2519 21.084L22.959 20.3769L16.7481 14.166L16.041 14.8731ZM22.2519 20.3769L20.3769 22.2519L21.084 22.959L22.959 21.084L22.2519 20.3769ZM21.084 22.2519L14.8731 16.041L14.166 16.7481L20.3769 22.959L21.084 22.2519ZM15.0195 16.3945V15.3984H14.0195V16.3945H15.0195ZM14.8731 15.0449L14.5215 14.6933L13.8144 15.4004L14.166 15.752L14.8731 15.0449ZM13.8401 14.6694C12.45 15.8766 10.8097 16.4805 8.89453 16.4805V17.4805C11.0419 17.4805 12.9172 16.7953 14.4958 15.4244L13.8401 14.6694ZM8.89453 16.4805C6.75754 16.4805 4.94978 15.7489 3.44291 14.2788L2.74459 14.9946C4.44084 16.6495 6.50027 17.4805 8.89453 17.4805V16.4805ZM3.4473 14.2832C1.9812 12.8171 1.25 11.0313 1.25 8.89453H0.25C0.25 11.289 1.0813 13.3314 2.7402 14.9903L3.4473 14.2832ZM1.25 8.89453C1.25 6.75776 1.9812 4.972 3.4473 3.5059L2.7402 2.79879C1.0813 4.45768 0.25 6.50006 0.25 8.89453H1.25ZM3.4473 3.5059C4.95507 1.99813 6.76147 1.25 8.89453 1.25V0.25C6.49634 0.25 4.43556 1.10343 2.7402 2.79879L3.4473 3.5059ZM8.89453 1.25C11.0273 1.25 12.8118 1.99775 14.2788 3.50151L14.9946 2.80318C13.3367 1.10381 11.293 0.25 8.89453 0.25V1.25ZM14.2832 3.5059C15.7493 4.972 16.4805 6.75776 16.4805 8.89453H17.4805C17.4805 6.50006 16.6492 4.45768 14.9903 2.79879L14.2832 3.5059ZM16.4805 8.89453C16.4805 9.63807 16.3028 10.5151 15.9257 11.5334L16.8634 11.8807C17.2675 10.7896 17.4805 9.79162 17.4805 8.89453H16.4805ZM15.9279 11.5275C15.5499 12.5101 15.1241 13.28 14.6588 13.8527L15.4349 14.4833C15.9853 13.8059 16.4579 12.9352 16.8612 11.8865L15.9279 11.5275ZM14.6933 14.5215L15.0449 14.8731L15.752 14.166L15.4004 13.8144L14.6933 14.5215ZM15.3984 15.0195H16.3945V14.0195H15.3984V15.0195Z" fill="#202020" fill-opacity="0.2"/>
</g>
</svg>
