<svg width="31" height="31" viewBox="0 0 31 31" fill="none" xmlns="http://www.w3.org/2000/svg">
<g opacity="0.3">
<path d="M6.54688 17.1719C8.00521 18.6302 9.77604 19.3594 11.8594 19.3594C13.9427 19.3594 15.7135 18.6302 17.1719 17.1719C18.6302 15.7135 19.3594 13.9427 19.3594 11.8594C19.3594 9.77604 18.6302 8.00521 17.1719 6.54688C15.7135 5.08854 13.9427 4.35938 11.8594 4.35938C9.77604 4.35938 8.00521 5.08854 6.54688 6.54688C5.08854 8.00521 4.35938 9.77604 4.35938 11.8594C4.35938 13.9427 5.08854 15.7135 6.54688 17.1719ZM21.8594 19.3594L30.1406 27.6406L27.6406 30.1406L19.3594 21.8594V20.5312L18.8906 20.0625C16.9115 21.7812 14.5677 22.6406 11.8594 22.6406C8.83854 22.6406 6.26042 21.599 4.125 19.5156C2.04167 17.4323 1 14.8802 1 11.8594C1 8.83854 2.04167 6.28646 4.125 4.20312C6.26042 2.06771 8.83854 1 11.8594 1C14.8802 1 17.4323 2.06771 19.5156 4.20312C21.599 6.28646 22.6406 8.83854 22.6406 11.8594C22.6406 12.9531 22.3802 14.2031 21.8594 15.6094C21.3385 16.9635 20.7396 18.0573 20.0625 18.8906L20.5312 19.3594H21.8594Z" fill="#202020"/>
<path d="M6.54688 17.1719L6.19332 17.5254L6.54688 17.1719ZM17.1719 6.54688L16.8183 6.90043L17.1719 6.54688ZM21.8594 19.3594L22.2129 19.0058L22.0665 18.8594H21.8594V19.3594ZM30.1406 27.6406L30.4942 27.9942L30.8477 27.6406L30.4942 27.2871L30.1406 27.6406ZM27.6406 30.1406L27.2871 30.4942L27.6406 30.8477L27.9942 30.4942L27.6406 30.1406ZM19.3594 21.8594H18.8594V22.0665L19.0058 22.2129L19.3594 21.8594ZM19.3594 20.5312H19.8594V20.3241L19.7129 20.1777L19.3594 20.5312ZM18.8906 20.0625L19.2442 19.7089L18.9146 19.3794L18.5628 19.685L18.8906 20.0625ZM4.125 19.5156L3.77142 19.8692L3.77584 19.8735L4.125 19.5156ZM4.125 4.20312L3.77145 3.84957L4.125 4.20312ZM19.5156 4.20312L19.1577 4.55231L19.1621 4.55668L19.5156 4.20312ZM21.8594 15.6094L22.3261 15.7889L22.3282 15.783L21.8594 15.6094ZM20.0625 18.8906L19.6744 18.5753L19.3901 18.9253L19.7089 19.2442L20.0625 18.8906ZM20.5312 19.3594L20.1777 19.7129L20.3241 19.8594H20.5312V19.3594ZM6.19332 17.5254C7.74649 19.0786 9.64495 19.8594 11.8594 19.8594V18.8594C9.90714 18.8594 8.26393 18.1818 6.90043 16.8183L6.19332 17.5254ZM11.8594 19.8594C14.0738 19.8594 15.9723 19.0786 17.5254 17.5254L16.8183 16.8183C15.4548 18.1818 13.8116 18.8594 11.8594 18.8594V19.8594ZM17.5254 17.5254C19.0786 15.9723 19.8594 14.0738 19.8594 11.8594H18.8594C18.8594 13.8116 18.1818 15.4548 16.8183 16.8183L17.5254 17.5254ZM19.8594 11.8594C19.8594 9.64495 19.0786 7.74649 17.5254 6.19332L16.8183 6.90043C18.1818 8.26393 18.8594 9.90714 18.8594 11.8594H19.8594ZM17.5254 6.19332C15.9723 4.64016 14.0738 3.85938 11.8594 3.85938V4.85938C13.8116 4.85938 15.4548 5.53693 16.8183 6.90043L17.5254 6.19332ZM11.8594 3.85938C9.64495 3.85938 7.74649 4.64016 6.19332 6.19332L6.90043 6.90043C8.26393 5.53693 9.90714 4.85938 11.8594 4.85938V3.85938ZM6.19332 6.19332C4.64016 7.74649 3.85938 9.64495 3.85938 11.8594H4.85938C4.85938 9.90714 5.53693 8.26393 6.90043 6.90043L6.19332 6.19332ZM3.85938 11.8594C3.85938 14.0738 4.64016 15.9723 6.19332 17.5254L6.90043 16.8183C5.53693 15.4548 4.85938 13.8116 4.85938 11.8594H3.85938ZM21.5058 19.7129L29.7871 27.9942L30.4942 27.2871L22.2129 19.0058L21.5058 19.7129ZM29.7871 27.2871L27.2871 29.7871L27.9942 30.4942L30.4942 27.9942L29.7871 27.2871ZM27.9942 29.7871L19.7129 21.5058L19.0058 22.2129L27.2871 30.4942L27.9942 29.7871ZM19.8594 21.8594V20.5312H18.8594V21.8594H19.8594ZM19.7129 20.1777L19.2442 19.7089L18.5371 20.4161L19.0058 20.8848L19.7129 20.1777ZM18.5628 19.685C16.6778 21.3219 14.4516 22.1406 11.8594 22.1406V23.1406C14.6838 23.1406 17.1451 22.2406 19.2185 20.44L18.5628 19.685ZM11.8594 22.1406C8.96718 22.1406 6.51488 21.1487 4.47416 19.1577L3.77584 19.8735C6.00595 22.0492 8.70991 23.1406 11.8594 23.1406V22.1406ZM4.47855 19.1621C2.49161 17.1751 1.5 14.7514 1.5 11.8594H0.5C0.5 15.0091 1.59172 17.6895 3.77145 19.8692L4.47855 19.1621ZM1.5 11.8594C1.5 8.96739 2.49161 6.54362 4.47855 4.55668L3.77145 3.84957C1.59172 6.0293 0.5 8.70969 0.5 11.8594H1.5ZM4.47855 4.55668C6.52017 2.51506 8.97111 1.5 11.8594 1.5V0.5C8.70598 0.5 6.00066 1.62036 3.77145 3.84957L4.47855 4.55668ZM11.8594 1.5C14.7474 1.5 17.1698 2.51468 19.1577 4.55229L19.8735 3.85396C17.6948 1.62074 15.013 0.5 11.8594 0.5V1.5ZM19.1621 4.55668C21.149 6.54362 22.1406 8.96739 22.1406 11.8594H23.1406C23.1406 8.70969 22.0489 6.0293 19.8692 3.84957L19.1621 4.55668ZM22.1406 11.8594C22.1406 12.8763 21.8979 14.0658 21.3905 15.4357L22.3282 15.783C22.8626 14.3404 23.1406 13.0299 23.1406 11.8594H22.1406ZM21.3927 15.4299C20.8846 16.751 20.309 17.7943 19.6744 18.5753L20.4506 19.2059C21.1702 18.3202 21.7925 17.1761 22.326 15.7889L21.3927 15.4299ZM19.7089 19.2442L20.1777 19.7129L20.8848 19.0058L20.4161 18.5371L19.7089 19.2442ZM20.5312 19.8594H21.8594V18.8594H20.5312V19.8594Z" fill="black" fill-opacity="0.2"/>
</g>
</svg>
