<svg width="24" height="18" viewBox="0 0 24 18" fill="none" xmlns="http://www.w3.org/2000/svg">
<path opacity="0.5" d="M15.9844 8.01562L9 12V3.98438L15.9844 8.01562ZM21 14.0156V2.01562H3V14.0156H21ZM21 0C21.5625 0 22.0312 0.203125 22.4062 0.609375C22.8125 0.984375 23.0156 1.45312 23.0156 2.01562L22.9688 14.0156C22.9688 14.5469 22.7656 15.0156 22.3594 15.4219C21.9844 15.7969 21.5312 15.9844 21 15.9844H15.9844V18H8.01562V15.9844H3C2.4375 15.9844 1.95312 15.7969 1.54688 15.4219C1.17188 15.0469 0.984375 14.5781 0.984375 14.0156V2.01562C0.984375 1.45312 1.17188 0.984375 1.54688 0.609375C1.95312 0.203125 2.4375 0 3 0H21Z" fill="#202020"/>
</svg>
