<svg width="335" height="148" viewBox="0 0 335 148" fill="none" xmlns="http://www.w3.org/2000/svg">
<path d="M32 40C32 33.3726 37.3726 28 44 28H288C294.627 28 300 33.3726 300 40V109C300 115.627 294.627 121 288 121H44C37.3726 121 32 115.627 32 109V40Z" fill="#CC0000" fill-opacity="0.8"/>
<path fill-rule="evenodd" clip-rule="evenodd" d="M323 4H12C7.58172 4 4 7.58172 4 12V136C4 140.418 7.58172 144 12 144H323C327.418 144 331 140.418 331 136V12C331 7.58172 327.418 4 323 4ZM12 0C5.37258 0 0 5.37258 0 12V136C0 142.627 5.37259 148 12 148H323C329.627 148 335 142.627 335 136V12C335 5.37258 329.627 0 323 0H12Z" fill="black"/>
<path d="M165.514 70.8671L135.068 90.9922L135.975 49.4329L165.514 70.8671Z" fill="#F3F0F0"/>
<path d="M66.5938 95V91.0625L71.6875 90.1875V54.3438L66.5938 53.4688V49.5H77.9062L100.219 84.9688L100.406 84.9062V54.3438L94.8125 53.4688V49.5H111.156V53.4688L106.062 54.3438V95H100.438L77.5312 59.3438L77.3438 59.4062V90.1875L82.9375 91.0625V95H66.5938Z" fill="black"/>
<path fill-rule="evenodd" clip-rule="evenodd" d="M65.5938 96V90.2196L70.6875 89.3446V55.1866L65.5938 54.3116V48.5H78.4586L99.4062 81.7992V55.1995L93.8125 54.3245V48.5H112.156V54.3116L107.062 55.1866V96H99.8913L78.3438 62.4587V89.3318L83.9375 90.2068V96H65.5938ZM77.3438 90.1875V59.4062L77.5312 59.3438L100.438 95H106.062V54.3438L111.156 53.4688V49.5H94.8125V53.4688L100.406 54.3438V84.9062L100.219 84.9688L77.9062 49.5H66.5938V53.4688L71.6875 54.3438V90.1875L66.5938 91.0625V95H82.9375V91.0625L77.3438 90.1875Z" fill="black"/>
<path d="M186.12 51.4399H177.9V46.3999H200.88V51.4399H192.9V94.9999H186.12V51.4399Z" fill="black"/>
<path d="M210.005 95.4799C208.125 95.4799 206.785 94.7999 205.985 93.4399C205.185 92.0799 204.785 90.3999 204.785 88.3999V60.3199H211.205V86.4799C211.205 87.7999 211.405 88.7999 211.805 89.4799C212.205 90.1199 212.925 90.4399 213.965 90.4399C215.245 90.4399 216.745 89.7199 218.465 88.2799V60.3199H224.885V94.9999H218.465V91.5799C215.705 94.1799 212.885 95.4799 210.005 95.4799Z" fill="black"/>
<path d="M243.871 95.4799C241.791 95.4799 239.831 94.4799 237.991 92.4799V94.9999H231.571V46.3999H237.991V63.0799C239.871 60.9199 242.051 59.8399 244.531 59.8399C247.691 59.8399 249.791 61.1999 250.831 63.9199C251.911 66.5999 252.451 69.5799 252.451 72.8599V81.2599C252.451 90.7399 249.591 95.4799 243.871 95.4799ZM242.551 90.4399C244.031 90.4399 244.971 89.6999 245.371 88.2199C245.811 86.6999 246.031 84.3799 246.031 81.2599V72.8599C246.031 70.2999 245.791 68.3399 245.311 66.9799C244.831 65.5799 243.831 64.8799 242.311 64.8799C240.911 64.8799 239.471 65.4599 237.991 66.6199V88.8799C239.311 89.9199 240.831 90.4399 242.551 90.4399Z" fill="black"/>
<path d="M267.887 95.4799C265.207 95.4799 263.127 94.9799 261.647 93.9799C260.167 92.9399 259.127 91.4199 258.527 89.4199C257.927 87.4199 257.627 84.8199 257.627 81.6199V73.6999C257.627 68.8999 258.367 65.3999 259.847 63.1999C261.367 60.9599 264.047 59.8399 267.887 59.8399C270.687 59.8399 272.787 60.4199 274.187 61.5799C275.627 62.7399 276.567 64.3799 277.007 66.4999C277.487 68.5799 277.727 71.3999 277.727 74.9599V77.7799H264.047V84.7399C264.047 86.8599 264.347 88.3999 264.947 89.3599C265.587 90.2799 266.587 90.7399 267.947 90.7399C269.307 90.7399 270.227 90.2799 270.707 89.3599C271.187 88.3999 271.427 86.9599 271.427 85.0399V82.9399H277.667V84.2599C277.667 87.8999 276.887 90.6799 275.327 92.5999C273.767 94.5199 271.287 95.4799 267.887 95.4799ZM271.427 74.2999V71.1799C271.427 68.8199 271.187 67.1399 270.707 66.1399C270.267 65.0999 269.307 64.5799 267.827 64.5799C266.787 64.5799 265.987 64.8199 265.427 65.2999C264.907 65.7799 264.547 66.5799 264.347 67.6999C264.147 68.7799 264.047 70.3599 264.047 72.4399V74.2999H271.427Z" fill="black"/>
</svg>
