<svg width="160" height="86" viewBox="0 0 160 86" fill="none" xmlns="http://www.w3.org/2000/svg">
<path fill-rule="evenodd" clip-rule="evenodd" d="M18.8686 0H140.96C143.035 0 144.717 1.59977 144.717 3.57318V81.2088C144.717 83.1822 143.035 84.782 140.96 84.782H18.8686C16.7938 84.782 15.1119 83.1822 15.1119 81.2088V3.57318C15.1119 1.59977 16.7938 0 18.8686 0Z" fill="#202020"/>
<path fill-rule="evenodd" clip-rule="evenodd" d="M18.8688 0.324768H140.961C142.847 0.324768 144.376 1.7791 144.376 3.57311V81.2087C144.376 83.0027 142.847 84.457 140.961 84.457H18.8688C16.9827 84.457 15.4537 83.0027 15.4537 81.2087V3.57311C15.4537 1.7791 16.9827 0.324768 18.8688 0.324768Z" fill="#D63333"/>
<path d="M0 84.7009C0 83.3554 1.09075 82.2646 2.43626 82.2646H157.564C158.909 82.2646 160 83.3554 160 84.7009H0Z" fill="#202020"/>
<path fill-rule="evenodd" clip-rule="evenodd" d="M0.341553 84.376C0.341553 83.3893 1.14144 82.5894 2.12814 82.5894H157.872C158.859 82.5894 159.659 83.3893 159.659 84.376H0.341553Z" fill="#D63333"/>
<path fill-rule="evenodd" clip-rule="evenodd" d="M0 84.7007H160C158.316 85.5549 156.455 86.0001 154.567 86.0001H5.43345C3.54534 86.0001 1.68384 85.5549 0 84.7007V84.7007Z" fill="#202020"/>
<path fill-rule="evenodd" clip-rule="evenodd" d="M0.512207 84.7007H159.488C157.909 85.3443 156.22 85.6752 154.515 85.6752H5.48442C3.77957 85.6752 2.09093 85.3443 0.512207 84.7007V84.7007Z" fill="#D63333"/>
<path d="M68.5592 82.2646H91.5261C91.5261 83.2064 90.7626 83.97 89.8207 83.97H70.2646C69.3227 83.97 68.5592 83.2064 68.5592 82.2646Z" fill="#202020"/>
</svg>
